<?xml version="1.0" encoding="UTF-8"?>
<svg version="1.1" xmlns="http://www.w3.org/2000/svg" width="2443" height="2500">
<path d="M0 0 C3.26439131 0.01197809 6.52876335 0.01890606 9.79317093 0.02481461 C41.08415882 0.09037835 72.262613 0.46851006 103.45817947 3.1334877 C106.60859664 3.40061516 109.75990413 3.65452855 112.91154861 3.9067421 C208.97921993 11.67562525 303.81751257 30.49016348 395.44475174 60.38672256 C396.27901688 60.65829178 397.11328201 60.92986099 397.97282791 61.20965958 C465.85963703 83.34819422 532.2634218 112.0134788 594.64201736 146.82275772 C597.72355489 148.54229861 600.81072898 150.25149493 603.89787674 151.96094131 C614.5636518 157.88261361 625.12750112 163.8750152 635.44475174 170.38672256 C637.91179174 171.91436915 640.38195368 173.4369051 642.8519783 174.95972061 C673.41618744 193.81936421 673.41618744 193.81936421 685.22600174 202.12500381 C688.17611985 204.19796302 691.14644049 206.2364648 694.12565994 208.26709366 C708.52455551 218.09527277 722.56603418 228.40304808 736.4769783 238.90723038 C738.45726598 240.39613153 740.44571003 241.87343131 742.43693924 243.34766006 C751.39467169 249.99178432 760.09830242 256.89478149 768.71574783 263.97363663 C771.00294501 265.84292458 773.31621399 267.67834858 775.63225174 269.51172256 C781.6807048 274.33836791 787.55898282 279.36450915 793.44475174 284.38672256 C794.03369217 284.88784561 794.6226326 285.38896866 795.22941971 285.90527725 C801.97499836 291.64549647 808.66612561 297.42994171 815.22600174 303.38281631 C817.23783567 305.19984238 819.27135607 306.98616649 821.31975174 308.76172256 C826.79401574 313.52635975 832.10870058 318.46866208 837.44475174 323.38672256 C836.08843346 326.41546716 834.56828408 328.51191666 832.22356033 330.85083389 C831.56882736 331.50864349 830.91409439 332.16645309 830.23952103 332.84419632 C829.53123154 333.54530029 828.82294205 334.24640427 828.09318924 334.96875381 C827.360327 335.70115784 826.62746475 336.43356186 825.87239456 337.18815994 C824.31961345 338.73792104 822.76440371 340.28525201 821.20695877 341.83032608 C818.84431346 344.17484924 816.48963439 346.52714004 814.13615799 348.88086319 C812.62230341 350.38979674 811.10799457 351.89827472 809.59318924 353.40625381 C808.89704514 354.1012851 808.20090103 354.79631638 807.48366165 355.51240921 C804.22145825 358.74371749 800.92280205 361.88035535 797.44524002 364.87964249 C793.19172966 368.55428483 789.23809335 372.48400558 785.28850174 376.48047256 C784.54193314 377.23082779 783.79536453 377.98118301 783.02617264 378.75427628 C780.66323149 381.12932177 778.30357804 383.50759073 775.94475174 385.88672256 C772.83314528 389.02511474 769.71811419 392.16005001 766.60100174 395.29297256 C765.90180618 396.00046646 765.20261063 396.70796036 764.48222733 397.43689346 C760.59670277 401.34145219 756.60149037 405.02855612 752.43095779 408.62537003 C748.9759681 411.68922881 745.75143443 414.97779314 742.50725174 418.26172256 C741.78287918 418.98988174 741.05850662 419.71804092 740.31218338 420.46826553 C738.02056871 422.77197902 735.73224521 425.07891731 733.44475174 427.38672256 C730.42690093 430.43137036 727.40561758 433.47255224 724.38225174 436.51172256 C723.70492996 437.19734268 723.02760818 437.8829628 722.32976151 438.58935928 C718.48503271 442.45349873 714.52479607 446.09769778 710.39836502 449.6579628 C707.18246062 452.50372874 704.17835968 455.549715 701.16350174 458.60547256 C700.50571732 459.26704361 699.84793289 459.92861465 699.17021561 460.61023331 C697.092579 462.69994991 695.01824547 464.79289571 692.94475174 466.88672256 C690.20817023 469.65013956 687.46812911 472.41005979 684.72600174 475.16797256 C684.1143013 475.78797134 683.50260086 476.40797012 682.87236404 477.04675674 C679.8489672 480.08696048 676.77589171 483.00479447 673.52629471 485.80298233 C669.08508272 489.64048568 664.97543576 493.76507036 660.85881424 497.94531631 C659.25347413 499.56328251 657.64800166 501.18111737 656.04240799 502.79883194 C653.53872342 505.32748907 651.03667946 507.8577316 648.5370369 510.39038467 C646.10693389 512.85050355 643.67080177 515.30451989 641.23381424 517.75781631 C640.48177719 518.52331299 639.72974014 519.28880966 638.95491409 520.0775032 C638.26013962 520.77565643 637.56536514 521.47380966 636.8495369 522.19311905 C636.23857162 522.81154175 635.62760635 523.42996445 634.99812698 524.06712723 C633.44475174 525.38672256 633.44475174 525.38672256 631.44475174 525.38672256 C631.44475174 526.04672256 631.44475174 526.70672256 631.44475174 527.38672256 C629.96583939 528.84315872 629.96583939 528.84315872 627.92668533 530.53149796 C623.63907058 534.17943822 619.67773281 538.05726761 615.73381424 542.07031631 C614.3107647 543.50598963 612.88758397 544.9415329 611.46428299 546.37695694 C609.25031581 548.61590855 607.0379993 550.85644876 604.82805252 553.09936905 C602.67594371 555.281493 600.51780975 557.45750904 598.35881424 559.63281631 C597.69427231 560.31081787 597.02973038 560.98881943 596.34505081 561.68736649 C595.42301361 562.61447182 595.42301361 562.61447182 594.4823494 563.56030655 C593.9424437 564.10766968 593.40253799 564.65503281 592.84627151 565.2189827 C591.44475174 566.38672256 591.44475174 566.38672256 589.44475174 566.38672256 C589.44475174 567.04672256 589.44475174 567.70672256 589.44475174 568.38672256 C587.97380447 569.8364296 587.97380447 569.8364296 585.94084549 571.51953506 C581.57507454 575.23422794 577.53396205 579.18567823 573.50725174 583.26172256 C572.78287918 583.98988174 572.05850662 584.71804092 571.31218338 585.46826553 C569.02056871 587.77197902 566.73224521 590.07891731 564.44475174 592.38672256 C561.42690093 595.43137036 558.40561758 598.47255224 555.38225174 601.51172256 C554.70492996 602.19734268 554.02760818 602.8829628 553.32976151 603.58935928 C549.48087891 607.4576735 545.51590125 611.10524784 541.38487625 614.66922379 C538.24709274 617.44695239 535.32340163 620.42356245 532.39006424 623.41406631 C531.10373243 624.71301974 529.81727051 626.01184435 528.53068924 627.31055069 C526.53401087 629.33222466 524.53899252 631.35549023 522.54631424 633.38110733 C520.60270097 635.35473506 518.65306624 637.32224986 516.70256424 639.28906631 C516.10364365 639.90144653 515.50472305 640.51382675 514.88765335 641.14476395 C513.44419266 642.59701808 511.94897546 643.99750269 510.44475174 645.38672256 C509.78475174 645.38672256 509.12475174 645.38672256 508.44475174 645.38672256 C508.11475174 646.37672256 507.78475174 647.36672256 507.44475174 648.38672256 C506.78475174 648.38672256 506.12475174 648.38672256 505.44475174 648.38672256 C505.11475174 649.37672256 504.78475174 650.36672256 504.44475174 651.38672256 C502.94865799 652.85937881 502.94865799 652.85937881 501.00725174 654.44922256 C495.8583827 658.80380146 491.1662611 663.57813618 486.44475174 668.38672256 C481.10955827 664.65208713 476.36156621 660.53114801 471.63225174 656.07422256 C465.77385514 650.56436447 459.74534864 645.38988834 453.44475174 640.38672256 C452.25794052 639.4317551 451.07178089 638.47597747 449.88615799 637.51953506 C419.55080024 613.08261016 387.42497414 590.33640724 353.0995369 571.82373428 C350.10660672 570.20368765 347.12578078 568.56229784 344.14397049 566.92187881 C271.91811231 527.43159299 192.89511463 502.318076 -203.18507004 512.6869545 C-231.57658694 521.0692258 -259.36147285 531.52345969 -286.58063889 543.12060928 C-288.56451344 543.96502602 -290.55020107 544.80519568 -292.53767014 545.6411171 C-304.37137754 550.61850981 -315.87268099 555.92456385 -327.16462326 562.03516006 C-330.51987594 563.85003347 -333.90985778 565.55885166 -337.34431076 567.21777725 C-348.14870101 572.44768015 -358.41085443 578.60550087 -368.73151779 584.72070694 C-371.22563738 586.19225043 -373.72833378 587.64651066 -376.23884201 589.08984756 C-385.83403972 594.62000898 -395.0792492 600.57501148 -404.23298264 606.80713272 C-406.60109368 608.41790632 -408.97617977 610.01799858 -411.35212326 611.61719131 C-421.65516702 618.57820087 -431.68362369 625.82838991 -441.55524826 633.38672256 C-442.72041938 634.27239381 -443.88577836 635.15781797 -445.05134201 636.04297256 C-459.2783694 646.8798529 -473.06367555 658.32114447 -486.30134201 670.34766006 C-488.32407516 672.17758503 -490.36894261 673.97553984 -492.43024826 675.76172256 C-503.04578393 685.04333237 -513.12408945 694.79568773 -523.07746506 704.77856827 C-525.27397637 706.98052813 -527.4758997 709.17697769 -529.67829514 711.37305069 C-531.07900723 712.77442215 -532.47940987 714.17610301 -533.87946701 715.57812881 C-534.53662201 716.23325958 -535.19377701 716.88839035 -535.87084579 717.56337357 C-536.77363014 718.47088615 -536.77363014 718.47088615 -537.69465256 719.39673233 C-538.22471405 719.92758942 -538.75477554 720.4584465 -539.30089951 721.00539017 C-540.66671088 722.38447444 -540.66671088 722.38447444 -541.55524826 724.38672256 C-542.21524826 724.38672256 -542.87524826 724.38672256 -543.55524826 724.38672256 C-543.7705217 724.9216835 -543.98579514 725.45664444 -544.20759201 726.00781631 C-546.04781651 729.2562126 -548.55401111 731.77050184 -551.11774826 734.44922256 C-555.64132968 739.26486503 -559.95268093 744.17280956 -564.09040451 749.32812881 C-565.97499167 751.66668942 -567.87745342 753.98317618 -569.80134201 756.28906631 C-577.06434249 765.00466689 -584.08944464 773.84759652 -590.79841232 782.99731827 C-592.16274239 784.85289058 -593.53634041 786.70165011 -594.9136467 788.54761124 C-602.41287678 798.63282469 -609.4727844 808.98475986 -616.43024826 819.44922256 C-617.00073898 820.30567368 -617.57122971 821.16212479 -618.15900803 822.04452896 C-626.72777057 834.92424374 -634.99015483 847.88656738 -642.55524826 861.38672256 C-643.38661769 862.8428298 -644.21863813 864.29856555 -645.05134201 865.75391006 C-681.12656319 929.28422789 -706.6601758 996.41231562 -723.55524826 1067.38672256 C-723.72778122 1068.11125626 -723.90031418 1068.83578995 -724.07807541 1069.58227921 C-733.17985351 1108.01578517 -739.23714559 1147.03549766 -742.55524826 1186.38672256 C-742.61476669 1187.08209122 -742.67428513 1187.77745987 -742.73560715 1188.4939003 C-749.28725008 1265.88618431 -742.23326019 1344.9650462 -680.55524826 1552.38672256 C-680.29054733 1553.00380081 -680.02584641 1553.62087906 -679.75312424 1554.25665665 C-668.20615965 1581.09504878 -655.27789449 1607.14536109 -640.55524826 1632.38672256 C-640.00981369 1633.32773819 -639.46437912 1634.26875381 -638.90241623 1635.23828506 C-631.78260644 1647.50935142 -624.43978893 1659.59159165 -616.55524826 1671.38672256 C-615.99080002 1672.2320253 -615.42635178 1673.07732803 -614.84479904 1673.948246 C-606.08834126 1687.0182182 -597.02605489 1699.8249139 -587.55524826 1712.38672256 C-587.08216232 1713.01433487 -586.60907639 1713.64194717 -586.12165451 1714.28857803 C-574.93044911 1729.08448692 -563.06960124 1743.40118032 -550.59431076 1757.13281631 C-548.76438579 1759.15554947 -546.96643098 1761.20041691 -545.18024826 1763.26172256 C-536.00182284 1773.76043662 -526.36570149 1783.73632592 -516.4929924 1793.57934952 C-514.35697469 1795.70996891 -512.22640708 1797.84593479 -510.09626389 1799.98242569 C-508.71442319 1801.36360606 -507.33227259 1802.74447646 -505.94977951 1804.12500381 C-505.01353493 1805.06428474 -505.01353493 1805.06428474 -504.05837631 1806.02254105 C-500.26339431 1809.79773595 -496.35094697 1813.38623589 -492.29743576 1816.88264847 C-490.07477299 1818.80152889 -487.9098964 1820.78054686 -485.74274826 1822.76172256 C-481.42264035 1826.66035653 -476.97453445 1830.36176114 -472.44977951 1834.01953506 C-469.94187731 1836.070532 -467.47448739 1838.16067352 -465.01862717 1840.27344131 C-451.18588185 1852.14587443 -436.4116086 1862.84158087 -421.55524826 1873.38672256 C-420.77262619 1873.9423085 -419.99000412 1874.49789444 -419.18366623 1875.07031631 C-389.72787737 1895.84213666 -358.62363961 1913.98838922 -326.55524826 1930.38672256 C-325.82499435 1930.76280655 -325.09474045 1931.13889053 -324.34235764 1931.526371 C-312.60594377 1937.56467089 -300.61850666 1943.03590433 -288.55524826 1948.38672256 C-287.80533615 1948.72139542 -287.05542404 1949.05606827 -286.28278732 1949.40088272 C-261.44988329 1960.41428136 -235.55442517 1969.57237492 -209.55524826 1977.38672256 C-207.9960466 1977.86287003 -207.9960466 1977.86287003 -206.40534592 1978.34863663 C-154.65206459 1994.07214071 -100.55674817 2004.05558729 -46.55524826 2007.38672256 C-45.33877609 2007.47212296 -44.12230392 2007.55752335 -42.86896896 2007.64551163 C-26.35007514 2008.72462746 -9.78943349 2008.63250785 6.75725174 2008.63672256 C7.55296459 2008.63716442 8.34867744 2008.63760628 9.16850281 2008.63806152 C36.35938478 2008.64596018 63.36144486 2008.00158865 90.44475174 2005.38672256 C91.78174118 2005.25943771 91.78174118 2005.25943771 93.14574051 2005.12958145 C120.13819794 2002.53705833 146.83496415 1998.59336695 173.44475174 1993.38672256 C174.6258754 1993.15565811 174.6258754 1993.15565811 175.83086014 1992.91992569 C220.57967614 1984.10887207 263.99671448 1971.0196846 306.44475174 1954.38672256 C308.36647846 1953.64415121 310.28834376 1952.90193836 312.21037674 1952.16016006 C320.54852428 1948.9154963 328.64491404 1945.46400689 336.59709549 1941.34375381 C340.48162265 1939.339208 344.43644475 1937.49439771 348.39348221 1935.63818741 C386.67114921 1917.63305754 423.03366751 1895.30279129 456.26115799 1869.10742569 C458.2927455 1867.50650566 460.33482389 1865.92042837 462.38225174 1864.33984756 C469.68589941 1858.68383071 476.78449053 1852.81273121 483.79289627 1846.79590225 C485.47814086 1845.35823868 487.17658204 1843.93759127 488.87834549 1842.51953506 C495.77229766 1836.74263619 502.29231355 1830.73362064 508.56364822 1824.28198624 C511.86876816 1820.89256466 515.29038671 1817.77110185 518.91130447 1814.72217178 C520.70950748 1813.15615197 522.24519971 1811.47889916 523.75725174 1809.63672256 C527.40117453 1805.33705968 531.37391243 1801.42261711 535.40568924 1797.48828506 C537.48601265 1795.5557621 537.48601265 1795.5557621 538.44475174 1793.38672256 C539.10475174 1793.38672256 539.76475174 1793.38672256 540.44475174 1793.38672256 C540.66904861 1792.84273819 540.89334549 1792.29875381 541.12443924 1791.73828506 C542.84866852 1788.66732048 545.15728206 1786.2927181 547.56975174 1783.76172256 C552.47837172 1778.50072555 557.03177192 1773.07355223 561.44475174 1767.38672256 C562.4936621 1766.05554501 563.54319533 1764.72485812 564.59318924 1763.39453506 C623.2047548 1688.9043688 669.67755855 1599.86205987 688.9991951 1486.95752335 C689.44475174 1484.38672256 689.44475174 1484.38672256 690.44475174 1481.38672256 C463.73475174 1481.38672256 237.02475174 1481.38672256 3.44475174 1481.38672256 C3.44475174 1328.59672256 3.44475174 1175.80672256 3.44475174 1018.38672256 C389.87475174 1018.38672256 776.30475174 1018.38672256 1174.44475174 1018.38672256 C1183.91198553 1060.98927461 1183.91198553 1060.98927461 1186.06975174 1074.01172256 C1186.20683548 1074.82460739 1186.34391922 1075.63749222 1186.48515701 1076.47500992 C1192.27762857 1111.0343249 1196.1612408 1146.02344184 1198.29759598 1180.99829483 C1198.44506654 1183.39183191 1198.60060164 1185.78475411 1198.75676346 1188.17773819 C1202.39858523 1245.35141394 1202.32672509 1303.76194585 1198.60295486 1360.92871475 C1198.44020946 1363.4572961 1198.28713304 1365.98631894 1198.13615799 1368.51562881 C1194.25415165 1432.97674872 1186.04395261 1497.05090861 1173.44475174 1560.38672256 C1173.2674855 1561.28187576 1173.09021927 1562.17702896 1172.90758133 1563.09930801 C1155.91342172 1648.6872179 1129.85878071 1732.22762129 1095.44475174 1812.38672256 C1094.76146805 1813.99088028 1094.76146805 1813.99088028 1094.06438065 1815.62744522 C1072.93498123 1865.15363097 1047.72941079 1913.16138888 1019.53068924 1958.99560928 C1018.19472214 1961.16749401 1016.86116189 1963.3408622 1015.53068924 1965.5161171 C1005.34279839 1982.16085473 994.52433206 1998.32847263 983.44475174 2014.38672256 C982.86596268 2015.22848038 982.28717361 2016.07023819 981.69084549 2016.93750381 C973.89632876 2028.24834389 965.6169203 2039.17126889 957.23820877 2050.05420303 C955.70582482 2052.04717829 954.18021607 2054.04492704 952.65959549 2056.04687881 C946.58146518 2064.02257176 940.28500958 2071.80803477 933.93303299 2079.56641006 C932.63065795 2081.15934121 931.33409142 2082.75701776 930.03850174 2084.35547256 C921.54971059 2094.81267905 912.78072204 2105.00980831 903.67912674 2114.93750381 C901.71912291 2117.08596955 899.79130683 2119.25556063 897.88225174 2121.44922256 C891.29323244 2129.00812087 884.59549543 2136.35081205 877.41350174 2143.35547256 C875.39622205 2145.2326421 875.39622205 2145.2326421 874.44475174 2147.38672256 C873.78475174 2147.38672256 873.12475174 2147.38672256 872.44475174 2147.38672256 C872.21223709 2147.9444838 871.97972244 2148.50224503 871.7401619 2149.07690811 C870.10851535 2151.98625753 868.08303048 2153.99020747 865.71818924 2156.34375381 C865.01842468 2157.04283104 865.01842468 2157.04283104 864.30452347 2157.75603104 C863.31668434 2158.74085602 862.32642279 2159.72325637 861.3339119 2160.70337296 C859.84042127 2162.17880299 858.35489424 2163.66187996 856.87053299 2165.14648819 C852.13896867 2169.85991289 847.33622223 2174.43514228 842.2635994 2178.78393936 C839.17658542 2181.50424094 836.32193137 2184.44808387 833.44475174 2187.38672256 C829.22694171 2191.64862509 825.00029151 2195.81389314 820.42131424 2199.69141006 C817.9361498 2201.82295427 815.54035028 2204.04355856 813.13225174 2206.26172256 C808.66952342 2210.33212312 804.08217174 2214.18849166 799.38225174 2217.98047256 C796.08121117 2220.68451643 792.85726529 2223.46801781 789.63225174 2226.26172256 C783.88357121 2231.22484959 777.9897618 2235.9603728 771.99162674 2240.61719131 C769.60652001 2242.47044817 767.24392182 2244.34754409 764.89787674 2246.25000381 C755.92729874 2253.52419919 746.74046433 2260.46209677 737.39372635 2267.24585342 C735.09650821 2268.91356647 732.80408305 2270.58733309 730.51335526 2272.26391983 C720.32552504 2279.69730329 709.9773877 2286.84618007 699.4679451 2293.81665421 C697.00870088 2295.44826112 694.55364141 2297.08601919 692.09904861 2298.72461319 C677.63875112 2308.35659674 663.04972408 2317.82798404 648.06975174 2326.63672256 C646.73110062 2327.42478287 646.73110062 2327.42478287 645.36540604 2328.22876358 C624.10823132 2340.65394839 602.37924742 2352.20947567 580.44475174 2363.38672256 C579.67953201 2363.77763077 578.91431229 2364.16853897 578.12590408 2364.57129288 C574.30228584 2366.52008708 570.46451921 2368.43721203 566.61027908 2370.32471085 C565.04375074 2371.09296319 563.47922016 2371.86529364 561.91594315 2372.64014053 C519.1879532 2393.78147596 474.57350873 2411.1203835 429.44475174 2426.38672256 C428.74771133 2426.62350723 428.05067093 2426.8602919 427.33250809 2427.10425186 C337.73550575 2457.52235089 244.35389303 2476.13176119 92.94475174 2490.07422256 C91.5483194 2490.16563019 91.5483194 2490.16563019 90.1236763 2490.25888443 C62.59192698 2492.03778179 35.08752019 2492.59535722 7.50725174 2492.57422256 C6.72215981 2492.57395569 5.93706787 2492.57368881 5.12818527 2492.57341385 C-21.47665515 2492.56210639 -48.00150683 2492.17606769 -74.55524826 2490.38672256 C-75.53463364 2490.32120193 -76.51401901 2490.2556813 -77.52308273 2490.1881752 C-154.28046877 2484.99571454 -229.91856769 2473.02095044 -304.55524826 2454.38672256 C-305.31388168 2454.19765335 -306.07251511 2454.00858414 -306.85413742 2453.81378555 C-330.68121623 2447.86012319 -354.18536403 2440.93191436 -377.55524826 2433.38672256 C-378.49966782 2433.08185928 -379.44408737 2432.776996 -380.4171257 2432.46289444 C-424.39450332 2418.22258333 -467.51250729 2401.62126316 -509.55524826 2382.38672256 C-510.54609421 2381.93353653 -510.54609421 2381.93353653 -511.55695724 2381.47119522 C-541.49959754 2367.74911867 -571.31999685 2353.52519945 -599.80817795 2336.96533585 C-602.7203047 2335.29187232 -605.65320178 2333.66102203 -608.59431076 2332.03906631 C-623.87528999 2323.60925264 -638.76568804 2314.64882205 -653.55524826 2305.38672256 C-655.26219678 2304.32408967 -656.96922219 2303.26158025 -658.67634201 2302.19922256 C-670.46383013 2294.83597004 -682.03479614 2287.1596368 -693.55524826 2279.38672256 C-694.37025803 2278.83870987 -695.18526779 2278.29069717 -696.02497482 2277.72607803 C-708.10664883 2269.59258361 -719.89255171 2261.10903588 -731.55524826 2252.38672256 C-732.44663498 2251.72132462 -732.44663498 2251.72132462 -733.35602951 2251.04248428 C-735.84427382 2249.18446653 -738.32854415 2247.32132774 -740.80915451 2245.45312881 C-742.6881581 2244.03919866 -744.57117413 2242.63058931 -746.45759201 2241.22656631 C-762.71392093 2229.11442637 -778.54514658 2216.42213204 -793.97126389 2203.26953506 C-797.31316914 2200.42288102 -800.6994255 2197.64091405 -804.11774826 2194.88672256 C-809.19132319 2190.75982051 -813.99265968 2186.38569699 -818.78571701 2181.94141006 C-821.01443219 2179.88558535 -823.26292745 2177.870553 -825.55524826 2175.88672256 C-829.92043128 2172.09875383 -834.16811215 2168.18493435 -838.41852951 2164.26953506 C-840.44850151 2162.39987364 -842.48704573 2160.5405574 -844.53571701 2158.69141006 C-850.52410228 2153.26468312 -856.30128005 2147.68672009 -861.98298264 2141.93970108 C-864.73779736 2139.16458162 -867.50575702 2136.47765652 -870.49274826 2133.94922256 C-878.8455344 2126.84046841 -886.64206107 2118.81196427 -893.71931076 2110.44141006 C-896.22034685 2107.64237819 -898.88569267 2105.02414424 -901.55524826 2102.38672256 C-905.39550153 2098.58806471 -909.08925466 2094.7503055 -912.59040451 2090.63281631 C-915.29455696 2087.54158836 -918.11878791 2084.56767387 -920.93024826 2081.57422256 C-925.61205325 2076.57445578 -930.03050283 2071.44693572 -934.31306076 2066.09766006 C-936.79433659 2063.09765061 -939.40431938 2060.23560449 -942.05524826 2057.38672256 C-947.13912013 2051.90922675 -951.8750742 2046.21060476 -956.55524826 2040.38672256 C-957.55144672 2039.16959571 -958.5489209 2037.95351229 -959.54743576 2036.73828506 C-966.92201476 2027.74782049 -974.052385 2018.59552173 -981.07673264 2009.32959366 C-982.41005137 2007.57752126 -983.75245399 2005.83324436 -985.10212326 2004.09375381 C-1018.39957071 1961.16616225 -1048.55804885 1915.51067023 -1075.55524826 1868.38672256 C-1076.09891037 1867.43974503 -1076.64257248 1866.49276749 -1077.2027092 1865.51709366 C-1081.0332656 1858.83260019 -1084.81152661 1852.12020618 -1088.55524826 1845.38672256 C-1089.06926193 1844.46455948 -1089.5832756 1843.54239639 -1090.11286545 1842.59228897 C-1107.7901512 1810.73000529 -1124.33104108 1777.93865487 -1138.55524826 1744.38672256 C-1138.82258774 1743.75729752 -1139.08992722 1743.12787247 -1139.36536789 1742.47937393 C-1143.88319236 1731.83047514 -1148.25824466 1721.12646645 -1152.55524826 1710.38672256 C-1152.85259872 1709.64482681 -1153.14994919 1708.90293106 -1153.45631027 1708.13855362 C-1185.17247065 1628.8878059 -1209.06865971 1546.10947187 -1237.80524826 1353.38672256 C-1237.92108261 1352.06858566 -1237.92108261 1352.06858566 -1238.03925705 1350.72381973 C-1238.6252152 1343.94985615 -1239.11251889 1337.1714808 -1239.55524826 1330.38672256 C-1239.59784649 1329.73853939 -1239.64044472 1329.09035622 -1239.6843338 1328.42253113 C-1241.39522027 1302.15914668 -1241.90288811 1275.95386487 -1241.87092209 1249.63843155 C-1241.86630541 1245.52829372 -1241.87318715 1241.41845298 -1241.8914299 1237.30835342 C-1242.31395148 1141.05438973 -1229.62549689 1045.2656044 -1172.55524826 835.38672256 C-1172.13916306 834.19874069 -1172.13916306 834.19874069 -1171.71467209 832.98675919 C-1162.25931532 806.06062142 -1151.78922455 779.61806829 -1140.55524826 753.38672256 C-1140.28021469 752.74317825 -1140.00518112 752.09963394 -1139.7218132 751.43658829 C-1122.96971403 712.28347214 -1104.62661336 673.11724572 -1083.22956467 636.27783585 C-1081.46287847 633.22722372 -1079.71662976 630.16553345 -1077.97321701 627.10156631 C-1069.16172535 611.65590862 -1060.0036669 596.45063647 -1050.55524826 581.38672256 C-1050.08232346 580.63229874 -1049.60939865 579.87787491 -1049.12214279 579.10058975 C-1031.48648799 551.11196578 -1012.45831136 523.91305227 -992.3145256 497.68506241 C-990.08158196 494.76791955 -987.8775902 491.83077185 -985.68024826 488.88672256 C-973.91481704 473.16988237 -961.64256185 457.90937577 -948.90241623 442.97217178 C-947.52091873 441.34632098 -946.14832308 439.71332549 -944.77790451 438.07812881 C-939.58329108 431.88713871 -934.28959945 425.8264604 -928.82477951 419.87109756 C-926.85202554 417.71159407 -924.91245647 415.53078372 -922.99274826 413.32422256 C-908.02899083 396.14873193 -892.18576669 379.84894761 -876.06428146 363.76538467 C-873.58796283 361.29482612 -871.11625134 358.81971397 -868.64577961 356.34331036 C-866.24434372 353.93736903 -863.83908125 351.5352683 -861.43415451 349.13281631 C-860.56005432 348.25669189 -859.68595413 347.38056747 -858.78536606 346.47789383 C-854.39680297 342.10595962 -849.94361072 337.8822764 -845.24593735 333.84383011 C-843.25359693 332.12674666 -841.33904716 330.3409968 -839.44196701 328.51953506 C-838.75707199 327.86622208 -838.07217697 327.21290909 -837.36652756 326.53979874 C-836.66568039 325.8705336 -835.96483322 325.20126846 -835.24274826 324.51172256 C-829.71289615 319.2649912 -824.13012311 314.26464888 -818.16071701 309.52344131 C-815.18824267 307.08574497 -812.36754943 304.504809 -809.55524826 301.88672256 C-804.9760815 297.63128337 -800.2623737 293.61348402 -795.39118576 289.69141006 C-792.85285712 287.62858101 -790.35665838 285.52800859 -787.87067795 283.40307999 C-781.21498783 277.71460098 -774.40565643 272.25737489 -767.48884201 266.89062881 C-765.43294851 265.29160054 -763.38435988 263.68352217 -761.33649826 262.07422256 C-750.56567729 253.62698641 -739.62029387 245.44375043 -728.55524826 237.38672256 C-727.76521408 236.80970596 -726.9751799 236.23268936 -726.16120529 235.63818741 C-717.0866619 229.01401243 -707.95117369 222.54989147 -698.55524826 216.38672256 C-696.47838521 215.00109828 -694.40436732 213.61126559 -692.3301506 212.2216835 C-618.16418183 162.586678 -539.61291193 120.18028833 -456.55524826 87.38672256 C-454.95640793 86.75540421 -454.95640793 86.75540421 -453.32526779 86.11133194 C-436.5314492 79.51041064 -419.60582884 73.29194413 -402.55524826 67.38672256 C-401.88942734 67.15598038 -401.22360641 66.92523819 -400.5376091 66.68750381 C-344.71269287 47.37966284 -287.61373291 32.28495832 -229.55524826 21.38672256 C-228.63179611 21.21290054 -227.70834396 21.03907852 -226.75690842 20.85998917 C-151.91191796 6.82251877 -76.15054944 -0.29879095 0 0 Z " fill="#33A852" transform="translate(1241.555248260498,-0.3867225646972656)"/>
<path d="M0 0 C3.26439131 0.01197809 6.52876335 0.01890606 9.79317093 0.02481461 C41.08415882 0.09037835 72.262613 0.46851006 103.45817947 3.1334877 C106.60859664 3.40061516 109.75990413 3.65452855 112.91154861 3.9067421 C208.97921993 11.67562525 303.81751257 30.49016348 395.44475174 60.38672256 C396.27901688 60.65829178 397.11328201 60.92986099 397.97282791 61.20965958 C465.85963703 83.34819422 532.2634218 112.0134788 594.64201736 146.82275772 C597.72355489 148.54229861 600.81072898 150.25149493 603.89787674 151.96094131 C614.5636518 157.88261361 625.12750112 163.8750152 635.44475174 170.38672256 C637.91179174 171.91436915 640.38195368 173.4369051 642.8519783 174.95972061 C673.41618744 193.81936421 673.41618744 193.81936421 685.22600174 202.12500381 C688.17611985 204.19796302 691.14644049 206.2364648 694.12565994 208.26709366 C708.52455551 218.09527277 722.56603418 228.40304808 736.4769783 238.90723038 C738.45726598 240.39613153 740.44571003 241.87343131 742.43693924 243.34766006 C751.39467169 249.99178432 760.09830242 256.89478149 768.71574783 263.97363663 C771.00294501 265.84292458 773.31621399 267.67834858 775.63225174 269.51172256 C781.6807048 274.33836791 787.55898282 279.36450915 793.44475174 284.38672256 C794.03369217 284.88784561 794.6226326 285.38896866 795.22941971 285.90527725 C801.97499836 291.64549647 808.66612561 297.42994171 815.22600174 303.38281631 C817.23783567 305.19984238 819.27135607 306.98616649 821.31975174 308.76172256 C826.79401574 313.52635975 832.10870058 318.46866208 837.44475174 323.38672256 C836.08843346 326.41546716 834.56828408 328.51191666 832.22356033 330.85083389 C831.56882736 331.50864349 830.91409439 332.16645309 830.23952103 332.84419632 C829.53123154 333.54530029 828.82294205 334.24640427 828.09318924 334.96875381 C827.360327 335.70115784 826.62746475 336.43356186 825.87239456 337.18815994 C824.31961345 338.73792104 822.76440371 340.28525201 821.20695877 341.83032608 C818.84431346 344.17484924 816.48963439 346.52714004 814.13615799 348.88086319 C812.62230341 350.38979674 811.10799457 351.89827472 809.59318924 353.40625381 C808.89704514 354.1012851 808.20090103 354.79631638 807.48366165 355.51240921 C804.22145825 358.74371749 800.92280205 361.88035535 797.44524002 364.87964249 C793.19172966 368.55428483 789.23809335 372.48400558 785.28850174 376.48047256 C784.54193314 377.23082779 783.79536453 377.98118301 783.02617264 378.75427628 C780.66323149 381.12932177 778.30357804 383.50759073 775.94475174 385.88672256 C772.83314528 389.02511474 769.71811419 392.16005001 766.60100174 395.29297256 C765.90180618 396.00046646 765.20261063 396.70796036 764.48222733 397.43689346 C760.59670277 401.34145219 756.60149037 405.02855612 752.43095779 408.62537003 C748.9759681 411.68922881 745.75143443 414.97779314 742.50725174 418.26172256 C741.78287918 418.98988174 741.05850662 419.71804092 740.31218338 420.46826553 C738.02056871 422.77197902 735.73224521 425.07891731 733.44475174 427.38672256 C730.42690093 430.43137036 727.40561758 433.47255224 724.38225174 436.51172256 C723.70492996 437.19734268 723.02760818 437.8829628 722.32976151 438.58935928 C718.48503271 442.45349873 714.52479607 446.09769778 710.39836502 449.6579628 C707.18246062 452.50372874 704.17835968 455.549715 701.16350174 458.60547256 C700.50571732 459.26704361 699.84793289 459.92861465 699.17021561 460.61023331 C697.092579 462.69994991 695.01824547 464.79289571 692.94475174 466.88672256 C690.20817023 469.65013956 687.46812911 472.41005979 684.72600174 475.16797256 C684.1143013 475.78797134 683.50260086 476.40797012 682.87236404 477.04675674 C679.8489672 480.08696048 676.77589171 483.00479447 673.52629471 485.80298233 C669.08508272 489.64048568 664.97543576 493.76507036 660.85881424 497.94531631 C659.25347413 499.56328251 657.64800166 501.18111737 656.04240799 502.79883194 C653.53872342 505.32748907 651.03667946 507.8577316 648.5370369 510.39038467 C646.10693389 512.85050355 643.67080177 515.30451989 641.23381424 517.75781631 C640.48177719 518.52331299 639.72974014 519.28880966 638.95491409 520.0775032 C638.26013962 520.77565643 637.56536514 521.47380966 636.8495369 522.19311905 C636.23857162 522.81154175 635.62760635 523.42996445 634.99812698 524.06712723 C633.44475174 525.38672256 633.44475174 525.38672256 631.44475174 525.38672256 C631.44475174 526.04672256 631.44475174 526.70672256 631.44475174 527.38672256 C629.96583939 528.84315872 629.96583939 528.84315872 627.92668533 530.53149796 C623.63907058 534.17943822 619.67773281 538.05726761 615.73381424 542.07031631 C614.3107647 543.50598963 612.88758397 544.9415329 611.46428299 546.37695694 C609.25031581 548.61590855 607.0379993 550.85644876 604.82805252 553.09936905 C602.67594371 555.281493 600.51780975 557.45750904 598.35881424 559.63281631 C597.69427231 560.31081787 597.02973038 560.98881943 596.34505081 561.68736649 C595.42301361 562.61447182 595.42301361 562.61447182 594.4823494 563.56030655 C593.9424437 564.10766968 593.40253799 564.65503281 592.84627151 565.2189827 C591.44475174 566.38672256 591.44475174 566.38672256 589.44475174 566.38672256 C589.44475174 567.04672256 589.44475174 567.70672256 589.44475174 568.38672256 C587.97380447 569.8364296 587.97380447 569.8364296 585.94084549 571.51953506 C581.57507454 575.23422794 577.53396205 579.18567823 573.50725174 583.26172256 C572.78287918 583.98988174 572.05850662 584.71804092 571.31218338 585.46826553 C569.02056871 587.77197902 566.73224521 590.07891731 564.44475174 592.38672256 C561.42690093 595.43137036 558.40561758 598.47255224 555.38225174 601.51172256 C554.70492996 602.19734268 554.02760818 602.8829628 553.32976151 603.58935928 C549.48087891 607.4576735 545.51590125 611.10524784 541.38487625 614.66922379 C538.24709274 617.44695239 535.32340163 620.42356245 532.39006424 623.41406631 C531.10373243 624.71301974 529.81727051 626.01184435 528.53068924 627.31055069 C526.53401087 629.33222466 524.53899252 631.35549023 522.54631424 633.38110733 C520.60270097 635.35473506 518.65306624 637.32224986 516.70256424 639.28906631 C516.10364365 639.90144653 515.50472305 640.51382675 514.88765335 641.14476395 C513.44419266 642.59701808 511.94897546 643.99750269 510.44475174 645.38672256 C509.78475174 645.38672256 509.12475174 645.38672256 508.44475174 645.38672256 C508.11475174 646.37672256 507.78475174 647.36672256 507.44475174 648.38672256 C506.78475174 648.38672256 506.12475174 648.38672256 505.44475174 648.38672256 C505.11475174 649.37672256 504.78475174 650.36672256 504.44475174 651.38672256 C502.94865799 652.85937881 502.94865799 652.85937881 501.00725174 654.44922256 C495.8583827 658.80380146 491.1662611 663.57813618 486.44475174 668.38672256 C481.10955827 664.65208713 476.36156621 660.53114801 471.63225174 656.07422256 C465.77385514 650.56436447 459.74534864 645.38988834 453.44475174 640.38672256 C452.25794052 639.4317551 451.07178089 638.47597747 449.88615799 637.51953506 C419.55080024 613.08261016 387.42497414 590.33640724 353.0995369 571.82373428 C350.10660672 570.20368765 347.12578078 568.56229784 344.14397049 566.92187881 C271.91811231 527.43159299 192.89511463 502.318076 -203.18507004 512.6869545 C-231.57658694 521.0692258 -259.36147285 531.52345969 -286.58063889 543.12060928 C-288.56451344 543.96502602 -290.55020107 544.80519568 -292.53767014 545.6411171 C-304.37137754 550.61850981 -315.87268099 555.92456385 -327.16462326 562.03516006 C-330.51987594 563.85003347 -333.90985778 565.55885166 -337.34431076 567.21777725 C-348.14870101 572.44768015 -358.41085443 578.60550087 -368.73151779 584.72070694 C-371.22563738 586.19225043 -373.72833378 587.64651066 -376.23884201 589.08984756 C-385.83403972 594.62000898 -395.0792492 600.57501148 -404.23298264 606.80713272 C-406.60109368 608.41790632 -408.97617977 610.01799858 -411.35212326 611.61719131 C-421.65516702 618.57820087 -431.68362369 625.82838991 -441.55524826 633.38672256 C-442.72041938 634.27239381 -443.88577836 635.15781797 -445.05134201 636.04297256 C-459.2783694 646.8798529 -473.06367555 658.32114447 -486.30134201 670.34766006 C-488.32407516 672.17758503 -490.36894261 673.97553984 -492.43024826 675.76172256 C-503.04578393 685.04333237 -513.12408945 694.79568773 -523.07746506 704.77856827 C-525.27397637 706.98052813 -527.4758997 709.17697769 -529.67829514 711.37305069 C-531.07900723 712.77442215 -532.47940987 714.17610301 -533.87946701 715.57812881 C-534.53662201 716.23325958 -535.19377701 716.88839035 -535.87084579 717.56337357 C-536.77363014 718.47088615 -536.77363014 718.47088615 -537.69465256 719.39673233 C-538.22471405 719.92758942 -538.75477554 720.4584465 -539.30089951 721.00539017 C-540.66671088 722.38447444 -540.66671088 722.38447444 -541.55524826 724.38672256 C-542.21524826 724.38672256 -542.87524826 724.38672256 -543.55524826 724.38672256 C-543.7705217 724.9216835 -543.98579514 725.45664444 -544.20759201 726.00781631 C-546.04781651 729.2562126 -548.55401111 731.77050184 -551.11774826 734.44922256 C-555.64132968 739.26486503 -559.95268093 744.17280956 -564.09040451 749.32812881 C-565.97499167 751.66668942 -567.87745342 753.98317618 -569.80134201 756.28906631 C-577.06434249 765.00466689 -584.08944464 773.84759652 -590.79841232 782.99731827 C-592.16274239 784.85289058 -593.53634041 786.70165011 -594.9136467 788.54761124 C-602.41287678 798.63282469 -609.4727844 808.98475986 -616.43024826 819.44922256 C-617.00073898 820.30567368 -617.57122971 821.16212479 -618.15900803 822.04452896 C-626.72777057 834.92424374 -634.99015483 847.88656738 -642.55524826 861.38672256 C-643.38661769 862.8428298 -644.21863813 864.29856555 -645.05134201 865.75391006 C-681.12656319 929.28422789 -706.6601758 996.41231562 -723.55524826 1067.38672256 C-723.72778122 1068.11125626 -723.90031418 1068.83578995 -724.07807541 1069.58227921 C-733.17985351 1108.01578517 -739.23714559 1147.03549766 -742.55524826 1186.38672256 C-742.61476669 1187.08209122 -742.67428513 1187.77745987 -742.73560715 1188.4939003 C-749.28718639 1265.88543199 -742.23454958 1344.96588737 -703.55524826 1492.38672256 C-704.28485764 1492.94617569 -705.01446701 1493.50562881 -705.76618576 1494.08203506 C-712.3802817 1499.1610075 -718.97567798 1504.26309274 -725.55524826 1509.38672256 C-730.71081749 1513.40138441 -735.87209055 1517.40773281 -741.05524826 1521.38672256 C-749.252232 1527.68101874 -757.4012882 1534.03685579 -765.55524826 1540.38672256 C-774.73512837 1547.53552085 -783.91979208 1554.6766754 -793.14899826 1561.76172256 C-797.29766194 1564.95300232 -801.42557307 1568.17093556 -805.55524826 1571.38672256 C-811.73670949 1576.2002398 -817.93446709 1580.99097136 -824.14899826 1585.76172256 C-828.29766194 1588.95300232 -832.42557307 1592.17093556 -836.55524826 1595.38672256 C-842.73670949 1600.2002398 -848.93446709 1604.99097136 -855.14899826 1609.76172256 C-859.29766194 1612.95300232 -863.42557307 1616.17093556 -867.55524826 1619.38672256 C-873.73670949 1624.2002398 -879.93446709 1628.99097136 -886.14899826 1633.76172256 C-890.29766194 1636.95300232 -894.42557307 1640.17093556 -898.55524826 1643.38672256 C-904.73670949 1648.2002398 -910.93446709 1652.99097136 -917.14899826 1657.76172256 C-921.29766194 1660.95300232 -925.42557307 1664.17093556 -929.55524826 1667.38672256 C-935.73670949 1672.2002398 -941.93446709 1676.99097136 -948.14899826 1681.76172256 C-952.29766194 1684.95300232 -956.42557307 1688.17093556 -960.55524826 1691.38672256 C-966.73670949 1696.2002398 -972.93446709 1700.99097136 -979.14899826 1705.76172256 C-983.29766194 1708.95300232 -987.42557307 1712.17093556 -991.55524826 1715.38672256 C-997.73670949 1720.2002398 -1003.93446709 1724.99097136 -1010.14899826 1729.76172256 C-1014.29766194 1732.95300232 -1018.42557307 1736.17093556 -1022.55524826 1739.38672256 C-1027.71082178 1743.40137882 -1032.87209054 1747.4077328 -1038.05524826 1751.38672256 C-1046.252232 1757.68101874 -1054.4012882 1764.03685579 -1062.55524826 1770.38672256 C-1065.65907978 1772.80382009 -1068.76317021 1775.22058395 -1071.86774826 1777.63672256 C-1072.99587936 1778.51469498 -1072.99587936 1778.51469498 -1074.14680099 1779.41040421 C-1079.53817715 1783.60317089 -1084.9487138 1787.77004777 -1090.37165451 1791.92187881 C-1092.73245689 1793.7389722 -1095.0674888 1795.58589916 -1097.39509201 1797.44531631 C-1098.03672287 1797.9561879 -1098.67835373 1798.46705948 -1099.33942795 1798.99341202 C-1100.58430522 1799.98647151 -1101.82598783 1800.98355243 -1103.06403732 1801.98511124 C-1107.33316127 1805.38672256 -1107.33316127 1805.38672256 -1109.55524826 1805.38672256 C-1125.38284906 1774.32838465 -1139.60684053 1742.74940958 -1152.55524826 1710.38672256 C-1152.85259872 1709.64482681 -1153.14994919 1708.90293106 -1153.45631027 1708.13855362 C-1185.17247065 1628.8878059 -1209.06865971 1546.10947187 -1237.80524826 1353.38672256 C-1237.92108261 1352.06858566 -1237.92108261 1352.06858566 -1238.03925705 1350.72381973 C-1238.6252152 1343.94985615 -1239.11251889 1337.1714808 -1239.55524826 1330.38672256 C-1239.59784649 1329.73853939 -1239.64044472 1329.09035622 -1239.6843338 1328.42253113 C-1241.39522027 1302.15914668 -1241.90288811 1275.95386487 -1241.87092209 1249.63843155 C-1241.86630541 1245.52829372 -1241.87318715 1241.41845298 -1241.8914299 1237.30835342 C-1242.31395148 1141.05438973 -1229.62549689 1045.2656044 -1172.55524826 835.38672256 C-1172.13916306 834.19874069 -1172.13916306 834.19874069 -1171.71467209 832.98675919 C-1162.25931532 806.06062142 -1151.78922455 779.61806829 -1140.55524826 753.38672256 C-1140.28021469 752.74317825 -1140.00518112 752.09963394 -1139.7218132 751.43658829 C-1122.96971403 712.28347214 -1104.62661336 673.11724572 -1083.22956467 636.27783585 C-1081.46287847 633.22722372 -1079.71662976 630.16553345 -1077.97321701 627.10156631 C-1069.16172535 611.65590862 -1060.0036669 596.45063647 -1050.55524826 581.38672256 C-1050.08232346 580.63229874 -1049.60939865 579.87787491 -1049.12214279 579.10058975 C-1031.48648799 551.11196578 -1012.45831136 523.91305227 -992.3145256 497.68506241 C-990.08158196 494.76791955 -987.8775902 491.83077185 -985.68024826 488.88672256 C-973.91481704 473.16988237 -961.64256185 457.90937577 -948.90241623 442.97217178 C-947.52091873 441.34632098 -946.14832308 439.71332549 -944.77790451 438.07812881 C-939.58329108 431.88713871 -934.28959945 425.8264604 -928.82477951 419.87109756 C-926.85202554 417.71159407 -924.91245647 415.53078372 -922.99274826 413.32422256 C-908.02899083 396.14873193 -892.18576669 379.84894761 -876.06428146 363.76538467 C-873.58796283 361.29482612 -871.11625134 358.81971397 -868.64577961 356.34331036 C-866.24434372 353.93736903 -863.83908125 351.5352683 -861.43415451 349.13281631 C-860.56005432 348.25669189 -859.68595413 347.38056747 -858.78536606 346.47789383 C-854.39680297 342.10595962 -849.94361072 337.8822764 -845.24593735 333.84383011 C-843.25359693 332.12674666 -841.33904716 330.3409968 -839.44196701 328.51953506 C-838.75707199 327.86622208 -838.07217697 327.21290909 -837.36652756 326.53979874 C-836.66568039 325.8705336 -835.96483322 325.20126846 -835.24274826 324.51172256 C-829.71289615 319.2649912 -824.13012311 314.26464888 -818.16071701 309.52344131 C-815.18824267 307.08574497 -812.36754943 304.504809 -809.55524826 301.88672256 C-804.9760815 297.63128337 -800.2623737 293.61348402 -795.39118576 289.69141006 C-792.85285712 287.62858101 -790.35665838 285.52800859 -787.87067795 283.40307999 C-781.21498783 277.71460098 -774.40565643 272.25737489 -767.48884201 266.89062881 C-765.43294851 265.29160054 -763.38435988 263.68352217 -761.33649826 262.07422256 C-750.56567729 253.62698641 -739.62029387 245.44375043 -728.55524826 237.38672256 C-727.76521408 236.80970596 -726.9751799 236.23268936 -726.16120529 235.63818741 C-717.0866619 229.01401243 -707.95117369 222.54989147 -698.55524826 216.38672256 C-696.47838521 215.00109828 -694.40436732 213.61126559 -692.3301506 212.2216835 C-618.16418183 162.586678 -539.61291193 120.18028833 -456.55524826 87.38672256 C-454.95640793 86.75540421 -454.95640793 86.75540421 -453.32526779 86.11133194 C-436.5314492 79.51041064 -419.60582884 73.29194413 -402.55524826 67.38672256 C-401.88942734 67.15598038 -401.22360641 66.92523819 -400.5376091 66.68750381 C-344.71269287 47.37966284 -287.61373291 32.28495832 -229.55524826 21.38672256 C-228.63179611 21.21290054 -227.70834396 21.03907852 -226.75690842 20.85998917 C-151.91191796 6.82251877 -76.15054944 -0.29879095 0 0 Z " fill="#EB4234" transform="translate(1241.555248260498,-0.3867225646972656)"/>
<path d="M0 0 C386.43 0 772.86 0 1171 0 C1180.46723379 42.60255204 1180.46723379 42.60255204 1182.625 55.625 C1182.83062561 56.84432724 1182.83062561 56.84432724 1183.04040527 58.08828735 C1188.83287683 92.64760234 1192.71648906 127.63671928 1194.85284424 162.61157227 C1195.0003148 165.00510935 1195.1558499 167.39803154 1195.31201172 169.79101562 C1198.95383349 226.96469137 1198.88197336 285.37522328 1195.15820312 342.54199219 C1194.99545772 345.07057354 1194.8423813 347.59959637 1194.69140625 350.12890625 C1190.80939991 414.59002615 1182.59920087 478.66418604 1170 542 C1169.82273376 542.8951532 1169.64546753 543.7903064 1169.46282959 544.71258545 C1152.46866998 630.30049534 1126.41402897 713.84089872 1092 794 C1091.54447754 795.06943848 1091.08895508 796.13887695 1090.61962891 797.24072266 C1069.49022949 846.76690841 1044.28465905 894.77466631 1016.0859375 940.60888672 C1014.7499704 942.78077144 1013.41641015 944.95413963 1012.0859375 947.12939453 C1001.89804665 963.77413217 991.07958033 979.94175006 980 996 C979.42121094 996.84175781 978.84242188 997.68351562 978.24609375 998.55078125 C970.45157702 1009.86162132 962.17216856 1020.78454632 953.79345703 1031.66748047 C952.26107308 1033.66045573 950.73546434 1035.65820448 949.21484375 1037.66015625 C943.13671344 1045.63584919 936.84025784 1053.4213122 930.48828125 1061.1796875 C929.18590621 1062.77261865 927.88933968 1064.3702952 926.59375 1065.96875 C918.10495885 1076.42595648 909.3359703 1086.62308574 900.234375 1096.55078125 C898.27437117 1098.69924699 896.34655509 1100.86883807 894.4375 1103.0625 C887.8484807 1110.6213983 881.15074369 1117.96408949 873.96875 1124.96875 C871.95147031 1126.84591953 871.95147031 1126.84591953 871 1129 C870.34 1129 869.68 1129 869 1129 C868.76748535 1129.55776123 868.5349707 1130.11552246 868.29541016 1130.69018555 C866.66376361 1133.59953496 864.63827874 1135.60348491 862.2734375 1137.95703125 C861.8069278 1138.42308273 861.34041809 1138.88913422 860.85977173 1139.36930847 C859.8719326 1140.35413345 858.88167105 1141.33653381 857.88916016 1142.31665039 C856.39566953 1143.79208043 854.9101425 1145.2751574 853.42578125 1146.75976562 C848.66324544 1151.50409754 843.83347697 1156.11553787 838.72900391 1160.49145508 C836.19959759 1162.69834601 833.85728625 1165.04747366 831.5 1167.4375 C830.21609375 1168.73494141 830.21609375 1168.73494141 828.90625 1170.05859375 C827.96265625 1171.01958984 827.96265625 1171.01958984 827 1172 C824.08383413 1170.64255131 821.65337937 1169.08255825 819.12890625 1167.09375 C818.39671875 1166.52011719 817.66453125 1165.94648438 816.91015625 1165.35546875 C816.13542969 1164.74316406 815.36070312 1164.13085938 814.5625 1163.5 C812.92860861 1162.21846538 811.29449298 1160.93721662 809.66015625 1159.65625 C808.86109863 1159.02847656 808.06204102 1158.40070313 807.23876953 1157.75390625 C804.34035836 1155.48322077 801.42256878 1153.23951631 798.5 1151 C792.53010829 1146.41705283 786.59045507 1141.79589513 780.65234375 1137.171875 C776.27855923 1133.76757571 771.89641293 1130.37502406 767.5 1127 C761.53010829 1122.41705283 755.59045507 1117.79589513 749.65234375 1113.171875 C745.27855923 1109.76757571 740.89641293 1106.37502406 736.5 1103 C730.53010829 1098.41705283 724.59045507 1093.79589513 718.65234375 1089.171875 C714.27855923 1085.76757571 709.89641293 1082.37502406 705.5 1079 C696.5147248 1072.10039094 687.58557012 1065.12848881 678.64746094 1058.16796875 C670.25138481 1051.6302988 661.8470729 1045.10482364 653.40625 1038.625 C648.47145464 1034.82900357 643.56454869 1030.99701961 638.65234375 1027.171875 C634.27855923 1023.76757571 629.89641293 1020.37502406 625.5 1017 C619.53010829 1012.41705283 613.59045507 1007.79589513 607.65234375 1003.171875 C603.27855923 999.76757571 598.89641293 996.37502406 594.5 993 C588.53010829 988.41705283 582.59045507 983.79589513 576.65234375 979.171875 C572.27855923 975.76757571 567.89641293 972.37502406 563.5 969 C554.5147248 962.10039094 545.58557012 955.12848881 536.64746094 948.16796875 C528.25138481 941.6302988 519.8470729 935.10482364 511.40625 928.625 C506.47145464 924.82900357 501.56454869 920.99701961 496.65234375 917.171875 C492.27855923 913.76757571 487.89641293 910.37502406 483.5 907 C478.31684199 903.02101001 473.15560138 899.01462082 468 895 C460.68718497 889.30622739 453.3521975 883.64281158 446 878 C443.56206043 876.12557125 441.12477748 874.25028954 438.6875 872.375 C437.58725114 871.52863081 436.48699186 870.68227516 435.38671875 869.8359375 C434.20529297 868.92714844 434.20529297 868.92714844 433 868 C434.39331287 864.69054764 435.8696407 863.06566619 438.7890625 861.00390625 C439.55798828 860.45178467 440.32691406 859.89966309 441.11914062 859.33081055 C441.94607422 858.74726807 442.77300781 858.16372559 443.625 857.5625 C452.08588449 851.466205 460.22918096 845.08726152 468.25878906 838.43701172 C470.7815772 836.35496868 473.3309177 834.30593205 475.875 832.25 C480.25904209 828.66126389 484.48604434 824.92664196 488.671875 821.109375 C490.73153033 819.24324433 492.82388895 817.42930212 494.9375 815.625 C498.80980962 812.2622048 502.39806682 808.63439784 505.99487305 804.98364258 C508.48925823 802.46489221 511.01241452 800.06408716 513.75 797.8125 C516.87024592 795.22335976 519.41000223 792.31490626 522.02734375 789.2265625 C525.1680667 785.68158808 528.57256568 782.40804014 531.9609375 779.1015625 C534.04126091 777.16903954 534.04126091 777.16903954 535 775 C535.66 775 536.32 775 537 775 C537.22429688 774.45601562 537.44859375 773.91203125 537.6796875 773.3515625 C539.40391678 770.28059792 541.71253032 767.90599554 544.125 765.375 C549.03361998 760.11400299 553.58702018 754.68682967 558 749 C559.04891036 747.66882244 560.09844359 746.33813555 561.1484375 745.0078125 C619.76000306 670.51764624 666.23280681 581.4753373 685.55444336 468.57080078 C686 466 686 466 687 463 C460.29 463 233.58 463 0 463 C0 310.21 0 157.42 0 0 Z " fill="#4185F3" transform="translate(1245,1018)"/>
<path d="M0 0 C3.38049785 2.22552435 6.70445183 4.46451088 9.890625 6.9609375 C10.59098877 7.50782227 11.29135254 8.05470703 12.01293945 8.61816406 C12.75116943 9.19791992 13.48939941 9.77767578 14.25 10.375 C15.85282928 11.62764934 17.45569492 12.88025216 19.05859375 14.1328125 C20.28425049 15.0923584 20.28425049 15.0923584 21.53466797 16.07128906 C25.45489334 19.13821126 29.38347126 22.19436896 33.3125 25.25 C34.06692383 25.83700684 34.82134766 26.42401367 35.59863281 27.02880859 C39.88928879 30.36546432 44.18900137 33.68967232 48.5 37 C55.91613129 42.69469554 63.29198584 48.44087592 70.66943359 54.18554688 C74.44517266 57.12513338 78.22265535 60.06247715 82 63 C83.50000877 64.16665539 85.00000876 65.33332207 86.5 66.5 C87.2425 67.0775 87.985 67.655 88.75 68.25 C95.5 73.5 95.5 73.5 97.7512207 75.25097656 C99.24711662 76.41443312 100.74304745 77.57784478 102.23901367 78.74121094 C106.05209776 81.70661998 109.86452064 84.67287262 113.67578125 87.640625 C120.27201386 92.77594703 126.86968837 97.9087193 133.5 103 C140.91613129 108.69469554 148.29198584 114.44087592 155.66943359 120.18554688 C159.44517266 123.12513338 163.22265535 126.06247715 167 129 C168.50000877 130.16665539 170.00000876 131.33332207 171.5 132.5 C172.2425 133.0775 172.985 133.655 173.75 134.25 C198.5 153.5 198.5 153.5 200.7512207 155.25097656 C202.24711662 156.41443312 203.74304745 157.57784478 205.23901367 158.74121094 C209.05209776 161.70661998 212.86452064 164.67287262 216.67578125 167.640625 C223.27201386 172.77594703 229.86968837 177.9087193 236.5 183 C243.91613129 188.69469554 251.29198584 194.44087592 258.66943359 200.18554688 C263.19367109 203.70787382 267.72015662 207.22731152 272.24658203 210.74682617 C276.01107646 213.67417613 279.77434918 216.60307017 283.53515625 219.53515625 C290.91489169 225.28616722 298.31011911 231.0144433 305.75 236.6875 C311.41225234 241.00559748 317.03955938 245.36343207 322.63085938 249.77294922 C327.32227595 253.47215509 332.03273376 257.14632254 336.75 260.8125 C337.50788818 261.401521 338.26577637 261.99054199 339.04663086 262.59741211 C340.59286768 263.79891631 342.13917341 265.00033182 343.68554688 266.20166016 C347.45815636 269.13299364 351.22898151 272.06662028 355 275 C356.10782837 275.86153687 356.10782837 275.86153687 357.23803711 276.74047852 C361.05146465 279.70610866 364.86419963 282.67262266 368.67578125 285.640625 C376.48025508 291.71658572 384.29542075 297.77749626 392.140625 303.80078125 C396.10640782 306.85096667 400.0557423 309.92205213 404 313 C402.41500698 320.80236893 400.20434692 328.39575386 397.97601318 336.03186035 C382.36689135 389.68381937 371.78332589 444.31757173 367 500 C366.93941406 500.70177368 366.87882812 501.40354736 366.81640625 502.12658691 C360.24498707 579.50048431 367.3250227 658.59725892 406 806 C405.27039063 806.55945312 404.54078125 807.11890625 403.7890625 807.6953125 C397.17496656 812.77428494 390.57957028 817.87637017 384 823 C378.84443077 827.01466185 373.68315771 831.02101024 368.5 835 C360.30301626 841.29429617 352.15396006 847.65013322 344 854 C334.82011989 861.14879829 325.63545618 868.28995283 316.40625 875.375 C312.25758632 878.56627975 308.12967519 881.784213 304 885 C297.81853877 889.81351723 291.62078118 894.60424879 285.40625 899.375 C281.25758632 902.56627975 277.12967519 905.784213 273 909 C266.81853877 913.81351723 260.62078118 918.60424879 254.40625 923.375 C250.25758632 926.56627975 246.12967519 929.784213 242 933 C235.81853877 937.81351723 229.62078118 942.60424879 223.40625 947.375 C219.25758632 950.56627975 215.12967519 953.784213 211 957 C204.81853877 961.81351723 198.62078118 966.60424879 192.40625 971.375 C188.25758632 974.56627975 184.12967519 977.784213 180 981 C173.81853877 985.81351723 167.62078118 990.60424879 161.40625 995.375 C157.25758632 998.56627975 153.12967519 1001.784213 149 1005 C142.81853877 1009.81351723 136.62078118 1014.60424879 130.40625 1019.375 C126.25758632 1022.56627975 122.12967519 1025.784213 118 1029 C111.81853877 1033.81351723 105.62078118 1038.60424879 99.40625 1043.375 C95.25758632 1046.56627975 91.12967519 1049.784213 87 1053 C81.84442648 1057.01465625 76.68315772 1061.02101023 71.5 1065 C63.30301626 1071.29429617 55.15396006 1077.65013322 47 1084 C43.89616848 1086.41709753 40.79207805 1088.83386139 37.6875 1091.25 C36.5593689 1092.12797241 36.5593689 1092.12797241 35.40844727 1093.02368164 C30.01707111 1097.21644833 24.60653446 1101.38332521 19.18359375 1105.53515625 C16.82279137 1107.35224963 14.48775946 1109.1991766 12.16015625 1111.05859375 C11.51852539 1111.56946533 10.87689453 1112.08033691 10.21582031 1112.60668945 C8.97094304 1113.59974894 7.72926043 1114.59682987 6.49121094 1115.59838867 C2.22208699 1119 2.22208699 1119 0 1119 C-15.8276008 1087.94166209 -30.05159227 1056.36268702 -43 1024 C-43.29735046 1023.25810425 -43.59470093 1022.5162085 -43.90106201 1021.75183105 C-75.61722239 942.50108334 -99.51341145 859.72274931 -128.25 667 C-128.36583435 665.6818631 -128.36583435 665.6818631 -128.48400879 664.33709717 C-129.06996694 657.56313359 -129.55727063 650.78475824 -130 644 C-130.04259823 643.35181683 -130.08519646 642.70363365 -130.12908554 642.03580856 C-131.83997201 615.77242412 -132.34763985 589.56714231 -132.31567383 563.25170898 C-132.31105715 559.14157116 -132.31793889 555.03173042 -132.33618164 550.92163086 C-132.75870322 454.66766716 -120.07024863 358.87888184 -63 149 C-62.72260986 148.20801208 -62.44521973 147.41602417 -62.15942383 146.60003662 C-52.70406706 119.67389885 -42.23397629 93.23134572 -31 67 C-30.72496643 66.35645569 -30.44993286 65.71291138 -30.16656494 65.04986572 C-20.7624715 43.07055681 -10.32624299 21.55627564 0 0 Z " fill="#FABB05" transform="translate(132,686)"/>
</svg>
