<?xml version="1.0" encoding="UTF-8"?>
<svg version="1.1" xmlns="http://www.w3.org/2000/svg" width="256" height="256">
<path d="M0 0 C84.48 0 168.96 0 256 0 C256 84.48 256 168.96 256 256 C171.52 256 87.04 256 0 256 C0 171.52 0 87.04 0 0 Z " fill="#FEFEFE" transform="translate(0,0)"/>
<path d="M0 0 C0.09297115 9.23212966 0.16390173 18.4640964 0.20724869 27.69659328 C0.22806058 31.98433999 0.25625992 36.27176472 0.30175781 40.55932617 C0.3454457 44.70258276 0.36918515 48.84553104 0.37950897 52.98900032 C0.38685943 54.56415721 0.40121267 56.13929858 0.42292023 57.71432304 C0.55255236 67.51611477 0.26127788 75.54023771 -6 83.5625 C-10.91538576 85.91778901 -15.67205209 85.93027662 -21 85 C-25.08869338 82.94155437 -27.38053782 80.56217825 -29.06735229 76.30831909 C-30.06711274 72.76193543 -30.24093594 69.84802279 -30.22705078 66.16845703 C-30.22734283 65.51409164 -30.22763489 64.85972626 -30.22793579 64.18553162 C-30.22655288 62.04281924 -30.21104147 59.90046343 -30.1953125 57.7578125 C-30.19157866 56.2642333 -30.18873344 54.77065163 -30.18673706 53.27706909 C-30.17912978 49.36109562 -30.15950653 45.44527236 -30.1373291 41.52935791 C-30.11680783 37.52740511 -30.10772195 33.52542784 -30.09765625 29.5234375 C-30.07625765 21.68222301 -30.04215713 13.84113024 -30 6 C-28.66270088 5.90803345 -28.66270088 5.90803345 -27.29838562 5.81420898 C-26.1283046 5.72985596 -24.95822357 5.64550293 -23.75268555 5.55859375 C-22.01319893 5.4356897 -22.01319893 5.4356897 -20.23857117 5.31030273 C-16.48048917 4.95022322 -13.38104787 4.20577021 -9.8125 3 C-8.74644531 2.649375 -7.68039063 2.29875 -6.58203125 1.9375 C-1.24583333 0 -1.24583333 0 0 0 Z " fill="#013A98" transform="translate(145,128)"/>
<path d="M0 0 C5.54794326 3.31708607 9.21302996 8.3566578 11.5 14.375 C12.27844965 21.0474256 10.84868588 26.53676631 7.5 32.375 C3.60257199 36.76977961 -0.75774834 40.05417006 -6.671875 40.74609375 C-18.5391705 40.96633832 -18.5391705 40.96633832 -23.8828125 36.94140625 C-29.23864054 31.75375638 -31.6466032 26.70753623 -31.9375 19.25 C-31.86868273 12.38356581 -30.25857567 8.2973116 -25.5 3.375 C-18.69276253 -3.18526286 -8.51075214 -3.82016716 0 0 Z " fill="#043B97" transform="translate(139.5,77.625)"/>
<path d="M0 0 C3.40615468 2.79146783 6.57402741 5.84919007 8.359375 9.93359375 C8 12.171875 8 12.171875 7.359375 13.93359375 C6.48796875 13.4025 5.6165625 12.87140625 4.71875 12.32421875 C-11.32221601 2.73815559 -27.50718328 -2.03273685 -46.203125 2.49609375 C-58.43836455 6.1222891 -68.22484952 12.43643051 -77.640625 20.93359375 C-78.445 21.65546875 -79.249375 22.37734375 -80.078125 23.12109375 C-95.11330636 37.34356261 -102.37182162 57.69976519 -108.640625 76.93359375 C-108.970625 76.93359375 -109.300625 76.93359375 -109.640625 76.93359375 C-110.14627533 55.9091854 -99.66553123 33.36854441 -85.640625 17.93359375 C-84.82980469 17.02996094 -84.01898438 16.12632813 -83.18359375 15.1953125 C-61.78222536 -7.45943032 -27.65388727 -19.02227453 0 0 Z " fill="#0F3E8D" transform="translate(168.640625,52.06640625)"/>
<path d="M0 0 C1 2 1 2 1 5 C1.21527344 5.64453125 1.43054688 6.2890625 1.65234375 6.953125 C2 9 2 9 1.06640625 10.796875 C0.32197266 11.76367188 0.32197266 11.76367188 -0.4375 12.75 C-9.26171145 25.31224546 -14.2791871 39.5156877 -19 54 C-19.33 54 -19.66 54 -20 54 C-20.3618877 38.95309055 -14.84593546 25.11271415 -7.9375 12 C-7.60919189 11.37681885 -7.28088379 10.7536377 -6.94262695 10.11157227 C-4.94185225 6.43024673 -2.71287601 3.19019718 0 0 Z " fill="#14418C" transform="translate(79,75)"/>
<path d="M0 0 C0.66 0 1.32 0 2 0 C2.09297115 9.23212966 2.16390173 18.4640964 2.20724869 27.69659328 C2.22806058 31.98433999 2.25625992 36.27176472 2.30175781 40.55932617 C2.3454457 44.70258276 2.36918515 48.84553104 2.37950897 52.98900032 C2.38685943 54.56415721 2.40121267 56.13929858 2.42292023 57.71432304 C2.55255236 67.51611477 2.26127788 75.54023771 -4 83.5625 C-8.76313257 85.84483436 -13.80803088 85.65954113 -19 85 C-19.66 84.34 -20.32 83.68 -21 83 C-16.38 83 -11.76 83 -7 83 C-7 82.01 -7 81.02 -7 80 C-5.68 80 -4.36 80 -3 80 C-3 78.02 -3 76.04 -3 74 C-1.515 73.505 -1.515 73.505 0 73 C0 48.91 0 24.82 0 0 Z " fill="#4269A1" transform="translate(143,128)"/>
<path d="M0 0 C3.3 0 6.6 0 10 0 C10 0.33 10 0.66 10 1 C7.36 1 4.72 1 2 1 C2 22.45 2 43.9 2 66 C2.99 66 3.98 66 5 66 C4.67 67.65 4.34 69.3 4 71 C3.01 70.67 2.02 70.34 1 70 C-0.12659519 66.62021442 -0.12020983 64.07183864 -0.11352539 60.5090332 C-0.11367142 59.8551059 -0.11381744 59.20117859 -0.1139679 58.5274353 C-0.11327188 56.36851674 -0.10549408 54.20968472 -0.09765625 52.05078125 C-0.09579096 50.55291287 -0.09436758 49.05504389 -0.09336853 47.55717468 C-0.08955207 43.61654981 -0.0797292 39.67596186 -0.06866455 35.73535156 C-0.05843172 31.71354675 -0.0538669 27.69173596 -0.04882812 23.66992188 C-0.03810616 15.77993099 -0.02104017 7.88997009 0 0 Z " fill="#28528F" transform="translate(115,134)"/>
<path d="M0 0 C1.3293457 0.00483398 1.3293457 0.00483398 2.68554688 0.00976562 C4.05356445 0.02233398 4.05356445 0.02233398 5.44921875 0.03515625 C6.38056641 0.03966797 7.31191406 0.04417969 8.27148438 0.04882812 C10.55996248 0.06056391 12.84830683 0.07698262 15.13671875 0.09765625 C15.46671875 1.08765625 15.79671875 2.07765625 16.13671875 3.09765625 C14.48671875 3.09765625 12.83671875 3.09765625 11.13671875 3.09765625 C10.80671875 4.08765625 10.47671875 5.07765625 10.13671875 6.09765625 C7.19915756 6.12460635 4.2618432 6.14447099 1.32421875 6.16015625 C0.49083984 6.16853516 -0.34253906 6.17691406 -1.20117188 6.18554688 C-2.40483398 6.19038086 -2.40483398 6.19038086 -3.6328125 6.1953125 C-4.74039917 6.20316772 -4.74039917 6.20316772 -5.87036133 6.21118164 C-7.86328125 6.09765625 -7.86328125 6.09765625 -10.86328125 5.09765625 C-10.53328125 3.77765625 -10.20328125 2.45765625 -9.86328125 1.09765625 C-6.51236354 0.34402573 -3.43218313 -0.02214312 0 0 Z " fill="#023B9C" transform="translate(132.86328125,44.90234375)"/>
<path d="M0 0 C3.20775147 6.20165283 3.20775147 6.20165283 2.51855469 8.85009766 C2.23915039 9.53120605 1.95974609 10.21231445 1.671875 10.9140625 C1.36636719 11.67589844 1.06085938 12.43773438 0.74609375 13.22265625 C0.41738281 14.01542969 0.08867188 14.80820313 -0.25 15.625 C-2.71917735 21.69125052 -5.003705 27.76018407 -7 34 C-7.33 34 -7.66 34 -8 34 C-8.29072757 21.91185351 -4.62798625 11.01204634 0 0 Z " fill="#1B458A" transform="translate(67,95)"/>
<path d="M0 0 C0.99 0.33 1.98 0.66 3 1 C-0.10709117 9.50361795 -0.10709117 9.50361795 -5 12 C-9.03481305 12.42613667 -12.97133038 12.51176601 -17 12 C-17.66 11.34 -18.32 10.68 -19 10 C-14.38 10 -9.76 10 -5 10 C-5 9.01 -5 8.02 -5 7 C-3.68 7 -2.36 7 -1 7 C-1.020625 6.030625 -1.04125 5.06125 -1.0625 4.0625 C-1 1 -1 1 0 0 Z " fill="#144186" transform="translate(141,201)"/>
<path d="M0 0 C0.33 0 0.66 0 1 0 C1.12117188 0.80824219 1.24234375 1.61648437 1.3671875 2.44921875 C1.53476563 3.51785156 1.70234375 4.58648437 1.875 5.6875 C2.03742188 6.74324219 2.19984375 7.79898438 2.3671875 8.88671875 C2.95893069 11.79794914 3.8031806 14.28955607 5 17 C3.68 17.33 2.36 17.66 1 18 C-0.70635633 14.97891011 -1.39289778 12.44498615 -1.75 9 C-1.84796875 8.154375 -1.9459375 7.30875 -2.046875 6.4375 C-1.99514428 3.7475023 -1.37384388 2.28269445 0 0 Z " fill="#D9E9F2" transform="translate(107,94)"/>
<path d="M0 0 C4.72508042 3.15005361 7.24443405 6.66614935 9 12 C9.29675479 14.76971139 9.1997454 17.2035644 9 20 C8.67 20 8.34 20 8 20 C7.731875 18.989375 7.46375 17.97875 7.1875 16.9375 C6.42852877 14.25106948 5.50608758 11.73914781 4.375 9.1875 C3 6 3 6 3 4 C2.34 4 1.68 4 1 4 C0.67 2.68 0.34 1.36 0 0 Z " fill="#315792" transform="translate(142,80)"/>
<path d="M0 0 C3.35111834 2.23407889 4.81553956 3.26215824 5.8125 7.25 C5.874375 8.1575 5.93625 9.065 6 10 C3.0625 8.8125 3.0625 8.8125 0 7 C-0.9375 4.4375 -0.9375 4.4375 -1 2 C-0.67 1.34 -0.34 0.68 0 0 Z " fill="#133E7F" transform="translate(171,56)"/>
<path d="M0 0 C1.57421875 1.6171875 1.57421875 1.6171875 3 4 C2.70703125 6.9453125 2.70703125 6.9453125 1.8125 10.125 C1.53019531 11.17945312 1.24789062 12.23390625 0.95703125 13.3203125 C0 16 0 16 -2 18 C-2.27560214 11.79895188 -1.22899346 6.06815522 0 0 Z " fill="#37577C" transform="translate(61,111)"/>
<path d="M0 0 C2.97 0 5.94 0 9 0 C9 0.66 9 1.32 9 2 C8.01 2 7.02 2 6 2 C6 2.66 6 3.32 6 4 C6.99 4 7.98 4 9 4 C9 4.66 9 5.32 9 6 C4.545 5.01 4.545 5.01 0 4 C0 2.68 0 1.36 0 0 Z " fill="#10439A" transform="translate(150,50)"/>
<path d="M0 0 C1 2 1 2 1 5 C1.2475 5.639375 1.495 6.27875 1.75 6.9375 C1.8325 7.618125 1.915 8.29875 2 9 C0.0625 11.25 0.0625 11.25 -2 13 C-1.67 11.02 -1.34 9.04 -1 7 C-2.32 7.33 -3.64 7.66 -5 8 C-1.125 1.125 -1.125 1.125 0 0 Z " fill="#1C4789" transform="translate(79,75)"/>
<path d="M0 0 C3.3 0 6.6 0 10 0 C6.08087205 2.93934596 3.70493352 3.99179996 -1 5 C-3.4375 4.625 -3.4375 4.625 -5 4 C-4.360625 3.71125 -3.72125 3.4225 -3.0625 3.125 C-0.84793921 2.17176549 -0.84793921 2.17176549 0 0 Z " fill="#E3F4FC" transform="translate(133,128)"/>
<path d="M0 0 C2.97 1.98 2.97 1.98 6 4 C5.34 6.31 4.68 8.62 4 11 C2 9 2 9 1.5 6.9375 C1.335 6.298125 1.17 5.65875 1 5 C0.34 4.67 -0.32 4.34 -1 4 C-0.67 2.68 -0.34 1.36 0 0 Z " fill="#1A4493" transform="translate(166,51)"/>
<path d="M0 0 C0.66 0.33 1.32 0.66 2 1 C0.80677904 4.39609044 -0.28495916 6.62433927 -3 9 C-3.66 9.66 -4.32 10.32 -5 11 C-7.625 11.125 -7.625 11.125 -10 11 C-9.2575 10.443125 -8.515 9.88625 -7.75 9.3125 C-4.52326049 6.59910541 -1.89487672 3.78975344 0 0 Z " fill="#DBEBF7" transform="translate(148,106)"/>
<path d="M0 0 C-0.49831724 3.68754757 -1.10067643 5.60490662 -4 8 C-4.33 5.69 -4.66 3.38 -5 1 C-3 0 -3 0 0 0 Z " fill="#0C3A86" transform="translate(73,93)"/>
<path d="M0 0 C0.33 0.99 0.66 1.98 1 3 C0.21625 3.28875 -0.5675 3.5775 -1.375 3.875 C-4.09671632 4.84912254 -4.09671632 4.84912254 -6 7 C-7.32392972 8.01241685 -8.65599167 9.01439389 -10 10 C-10.66 9.67 -11.32 9.34 -12 9 C-10.38050958 7.49405319 -8.75424026 5.99539332 -7.125 4.5 C-6.22007813 3.6646875 -5.31515625 2.829375 -4.3828125 1.96875 C-2 0 -2 0 0 0 Z " fill="#DFF1FB" transform="translate(101,65)"/>
<path d="M0 0 C0.66 0 1.32 0 2 0 C0.46527032 4.72224516 -1.23945126 9.35855331 -3 14 C-3.33 14 -3.66 14 -4 14 C-3.46148032 8.72250715 -2.22656164 4.74354436 0 0 Z " fill="#E2F1FB" transform="translate(67,91)"/>
<path d="M0 0 C0.33 0.66 0.66 1.32 1 2 C1.66 2 2.32 2 3 2 C2.67 3.98 2.34 5.96 2 8 C1.34 8 0.68 8 0 8 C0 7.34 0 6.68 0 6 C-0.66 5.67 -1.32 5.34 -2 5 C-1.34 3.35 -0.68 1.7 0 0 Z " fill="#04398E" transform="translate(80,74)"/>
<path d="M0 0 C0.33 0 0.66 0 1 0 C1.66 3.3 2.32 6.6 3 10 C2.01 10 1.02 10 0 10 C-0.74926071 6.33694766 -1.2380014 3.57644848 0 0 Z " fill="#E0F1F8" transform="translate(114,196)"/>
<path d="M0 0 C0 0.99 0 1.98 0 3 C-3.67410785 4.17571451 -7.16929183 4.07366746 -11 4 C-3.28571429 0 -3.28571429 0 0 0 Z " fill="#264D91" transform="translate(143,129)"/>
<path d="M0 0 C0.598125 0.350625 1.19625 0.70125 1.8125 1.0625 C-1.41541555 3.2144437 -2.47150809 3.26336443 -6.1875 3.0625 C-5.8575 2.0725 -5.5275 1.0825 -5.1875 0.0625 C-2.1875 -0.9375 -2.1875 -0.9375 0 0 Z " fill="#EDF2F1" transform="translate(174.1875,64.9375)"/>
<path d="M0 0 C1.4606285 2.64738916 2 3.89448334 2 7 C2.66 7.33 3.32 7.66 4 8 C3.01 8.66 2.02 9.32 1 10 C0.87625 9.195625 0.7525 8.39125 0.625 7.5625 C0.315625 6.2940625 0.315625 6.2940625 0 5 C-0.66 4.67 -1.32 4.34 -2 4 C-1.34 2.68 -0.68 1.36 0 0 Z " fill="#1A498E" transform="translate(94,59)"/>
<path d="M0 0 C1.65 0 3.3 0 5 0 C2.42215154 2.64752004 0.08351902 4.94432065 -3 7 C-3 6.01 -3 5.02 -3 4 C-2.34 4 -1.68 4 -1 4 C-0.67 2.68 -0.34 1.36 0 0 Z " fill="#D9E9F4" transform="translate(93,56)"/>
<path d="M0 0 C1.65 0.33 3.3 0.66 5 1 C2.60490662 3.89932357 0.68754757 4.50168276 -3 5 C-2.01 3.35 -1.02 1.7 0 0 Z " fill="#143F82" transform="translate(138,112)"/>
<path d="M0 0 C0.33 1.32 0.66 2.64 1 4 C0.01 4 -0.98 4 -2 4 C-2.99 5.485 -2.99 5.485 -4 7 C-4.66 6.01 -5.32 5.02 -6 4 C-4.02 2.68 -2.04 1.36 0 0 Z " fill="#DDEBF5" transform="translate(107,60)"/>
<path d="M0 0 C3.63 0 7.26 0 11 0 C10.67 0.99 10.34 1.98 10 3 C6.7 2.34 3.4 1.68 0 1 C0 0.67 0 0.34 0 0 Z " fill="#CCE0F1" transform="translate(146,43)"/>
</svg>
